<?xml version="1.0" standalone="no"?>
<!DOCTYPE svg PUBLIC "-//W3C//DTD SVG 20010904//EN"
 "http://www.w3.org/TR/2001/REC-SVG-20010904/DTD/svg10.dtd">
<svg version="1.0" xmlns="http://www.w3.org/2000/svg"
 width="128.000000pt" height="128.000000pt" viewBox="0 0 128.000000 128.000000"
 preserveAspectRatio="xMidYMid meet">
<metadata>
Created by potrace 1.14, written by Peter Selinger 2001-2017
</metadata>
<g transform="translate(0.000000,128.000000) scale(0.100000,-0.100000)"
fill="#000000" stroke="none">
<path d="M90 955 l0 -145 95 0 95 0 0 -80 0 -79 -107 -3 c-93 -3 -108 -5 -111
-20 -3 -17 9 -18 141 -18 231 0 387 11 387 27 0 10 -29 13 -135 13 l-135 0 0
80 0 80 105 0 105 0 0 145 0 145 -220 0 -220 0 0 -145z m410 0 l0 -115 -190 0
-190 0 0 115 0 115 190 0 190 0 0 -115z"/>
<path d="M700 999 c-19 -10 -43 -18 -52 -19 -15 0 -18 -10 -18 -60 0 -46 3
-60 14 -60 10 0 16 13 18 35 l3 35 97 -64 c80 -54 98 -63 108 -51 9 11 -7 26
-85 78 l-96 64 31 13 c28 12 39 33 22 43 -4 3 -23 -3 -42 -14z"/>
<path d="M590 855 c0 -8 50 -48 112 -89 l111 -75 -36 -21 c-36 -22 -50 -50
-24 -50 7 0 34 14 61 30 l47 30 -7 48 c-8 57 -11 62 -31 62 -11 0 -14 -8 -11
-29 4 -29 3 -28 -99 40 -106 72 -123 79 -123 54z"/>
<path d="M890 395 l0 -355 175 0 175 0 0 355 0 355 -175 0 -175 0 0 -355z
m320 0 l0 -325 -145 0 -145 0 0 325 0 325 145 0 145 0 0 -325z"/>
<path d="M960 635 c-26 -32 13 -81 48 -59 22 14 27 41 12 59 -16 19 -44 19
-60 0z"/>
<path d="M1080 605 c0 -13 9 -16 48 -13 26 2 47 8 47 13 0 6 -21 11 -47 13
-39 3 -48 0 -48 -13z"/>
<path d="M960 456 c-28 -35 11 -93 48 -70 35 22 22 84 -18 84 -10 0 -23 -7
-30 -14z"/>
<path d="M1075 430 c-12 -20 7 -30 61 -30 47 0 54 2 54 20 0 18 -7 20 -54 20
-30 0 -58 -4 -61 -10z"/>
<path d="M960 265 c-26 -32 13 -81 48 -59 22 14 27 41 12 59 -16 19 -44 19
-60 0z"/>
<path d="M1085 240 c-3 -5 0 -13 8 -16 23 -8 92 0 92 11 0 14 -92 19 -100 5z"/>
</g>
</svg>
